<?xml version="1.0" standalone="no"?>
<!DOCTYPE svg PUBLIC "-//W3C//DTD SVG 20010904//EN"
 "http://www.w3.org/TR/2001/REC-SVG-20010904/DTD/svg10.dtd">
<svg version="1.0" xmlns="http://www.w3.org/2000/svg"
 width="267.000000pt" height="189.000000pt" viewBox="0 0 267.000000 189.000000"
 preserveAspectRatio="xMidYMid meet">

<g transform="translate(0.000000,189.000000) scale(0.100000,-0.100000)"
fill="#000000" stroke="none">
<path d="M0 945 l0 -945 1335 0 1335 0 0 945 0 945 -1335 0 -1335 0 0 -945z
m1205 550 c84 -34 177 -34 254 1 l57 25 50 -19 c81 -32 140 -39 206 -27 15 3
16 1 8 -16 -6 -10 -13 -19 -16 -19 -3 0 -2 6 2 13 6 10 4 10 -7 0 -27 -26
-218 -6 -202 21 3 6 3 8 -2 4 -4 -4 -16 -3 -27 3 -15 8 -24 7 -36 -3 -29 -24
-72 -38 -131 -44 -62 -6 -157 15 -154 34 2 6 -4 9 -12 6 -9 -4 -22 -1 -29 5
-11 10 -24 7 -58 -10 -51 -26 -168 -37 -213 -19 -23 9 -26 13 -15 20 10 7 19
5 26 -5 13 -18 28 -20 18 -3 -4 6 -3 8 3 5 12 -7 142 19 185 38 18 8 33 14 33
15 0 0 27 -11 60 -25z m-355 -25 c-9 -5 -9 -9 -1 -14 6 -4 16 -16 22 -28 7
-13 7 -18 1 -14 -6 3 -14 2 -17 -4 -4 -6 -3 -10 2 -9 37 6 54 -32 60 -141 4
-68 1 -97 -14 -142 l-20 -58 449 0 c246 0 448 2 448 4 0 2 -7 23 -15 46 -33
94 -7 279 48 336 22 23 37 23 37 1 0 -7 -4 -6 -10 3 -10 15 -12 11 -14 -22 0
-7 -9 -35 -19 -63 -26 -66 -27 -173 -3 -244 10 -29 38 -81 61 -116 l43 -63
-24 -21 c-21 -18 -24 -30 -24 -83 0 -75 -34 -179 -76 -234 -67 -87 -202 -155
-332 -167 -32 -3 -52 -13 -76 -36 -17 -17 -36 -31 -40 -31 -4 0 -25 13 -45 28
-25 20 -60 33 -118 44 -232 45 -363 195 -363 418 0 34 -5 52 -20 65 -26 24
-26 27 15 84 89 124 101 298 28 411 -15 23 -15 24 0 11 18 -15 24 -2 7 15 -13
13 -2 46 12 38 6 -4 6 -9 -2 -14z m975 10 c-3 -5 -12 -10 -18 -10 -7 0 -6 4 3
10 19 12 23 12 15 0z m-281 -26 c14 -5 16 -32 16 -190 0 -177 -1 -184 -20
-184 -19 0 -20 7 -20 190 0 105 2 190 4 190 2 0 11 -3 20 -6z m-279 -28 l60
-12 3 -47 3 -47 -70 0 -71 0 0 60 c0 33 3 60 8 59 4 0 34 -6 67 -13z m205
-166 l0 -180 -25 0 -25 0 0 164 c0 136 3 167 16 180 8 9 20 16 25 16 5 0 9
-76 9 -180z m-410 113 l0 -53 -63 0 -62 0 -18 49 c-9 27 -17 50 -17 52 0 2 36
4 80 4 l80 1 0 -53z m591 47 c5 0 9 -73 9 -170 l0 -170 -25 0 -25 0 0 176 c0
157 2 175 16 170 9 -3 20 -6 25 -6z m104 -47 c-24 -69 -29 -177 -12 -240 14
-53 14 -53 -9 -53 l-24 0 0 169 0 170 28 3 c15 2 28 3 30 2 2 -1 -4 -24 -13
-51z m-377 -126 c2 -162 2 -167 -18 -167 -19 0 -20 6 -20 163 0 90 3 167 7
171 22 22 28 -11 31 -167z m-318 -112 l0 -55 -76 0 c-65 0 -75 2 -70 16 3 9 9
33 12 55 l7 39 63 0 64 0 0 -55z m268 -2 l-3 -58 -65 0 -65 0 -3 58 -3 57 71
0 71 0 -3 -57z"/>
<path d="M1801 1404 c0 -11 3 -14 6 -6 3 7 2 16 -1 19 -3 4 -6 -2 -5 -13z"/>
<path d="M1130 984 c0 -50 3 -64 15 -64 9 0 15 9 15 25 0 18 5 25 20 25 11 0
20 7 20 15 0 8 -9 15 -20 15 -11 0 -20 5 -20 10 0 6 14 10 30 10 50 0 36 25
-15 26 l-45 2 0 -64z"/>
<path d="M1290 1030 c-11 -11 -20 -33 -20 -48 0 -51 61 -82 90 -47 13 16 11
17 -30 19 -21 1 -25 6 -25 31 0 28 2 30 33 27 36 -2 42 12 13 28 -28 14 -38
13 -61 -10z"/>
<path d="M1458 1042 c-27 -3 -28 -5 -28 -63 l0 -60 48 3 47 3 0 54 c0 59 -12
70 -67 63z m42 -32 c0 -5 -9 -10 -20 -10 -11 0 -20 5 -20 10 0 6 9 10 20 10
11 0 20 -4 20 -10z m0 -50 c0 -5 -9 -10 -20 -10 -11 0 -20 5 -20 10 0 6 9 10
20 10 11 0 20 -4 20 -10z"/>
<path d="M853 894 c-3 -8 -3 -44 0 -80 5 -72 48 -173 92 -216 38 -38 134 -86
211 -104 84 -21 275 -23 354 -4 203 48 318 182 308 360 l-3 55 -478 2 c-425 3
-478 1 -484 -13z m533 -90 c19 -9 42 -30 50 -47 l16 -30 -29 21 c-16 11 -42
24 -59 28 -42 10 -46 14 -33 30 14 17 14 17 55 -2z m-75 -6 c6 -99 5 -120 -8
-125 -25 -10 -43 18 -43 66 0 47 13 71 37 71 7 0 13 -6 14 -12z m-65 -55 c-1
-21 3 -48 7 -59 6 -16 3 -23 -9 -28 -19 -7 -34 9 -34 37 0 18 26 87 32 87 2 0
4 -17 4 -37z m182 -18 c12 -15 22 -35 22 -45 0 -18 -3 -18 -27 -7 -16 6 -32
17 -36 24 -4 7 -19 13 -33 13 -28 0 -42 24 -25 44 17 20 69 4 99 -29z m-50
-51 c2 -11 -6 -28 -17 -38 -26 -24 -110 -34 -121 -15 -11 17 17 38 51 39 14 0
34 9 44 20 22 24 39 21 43 -6z m58 -25 c9 -15 -35 -57 -71 -67 -17 -5 -41 -6
-55 -2 -23 6 -22 8 23 28 26 11 50 28 53 36 7 18 40 21 50 5z"/>
</g>
</svg>
