<?xml version="1.0" standalone="no"?>
<!DOCTYPE svg PUBLIC "-//W3C//DTD SVG 20010904//EN"
 "http://www.w3.org/TR/2001/REC-SVG-20010904/DTD/svg10.dtd">
<svg version="1.0" xmlns="http://www.w3.org/2000/svg"
 width="1251.000000pt" height="610.000000pt" viewBox="0 0 1251.000000 610.000000"
 preserveAspectRatio="xMidYMid meet">
<metadata>
Created by potrace 1.16, written by Peter Selinger 2001-2019
</metadata>
<g transform="translate(0.000000,610.000000) scale(0.100000,-0.100000)"
fill="#000000" stroke="none">
<path d="M915 5986 c-122 -39 -248 -142 -298 -247 -15 -30 -35 -91 -44 -135
-51 -249 108 -505 352 -569 47 -12 122 -15 360 -15 229 0 315 -4 363 -15 162
-38 291 -155 354 -321 l23 -59 3 -1752 2 -1753 -485 0 -485 0 0 763 c0 828 1
817 -56 928 -55 110 -181 212 -298 244 -47 13 -90 16 -168 13 -98 -3 -110 -6
-184 -42 -105 -52 -178 -126 -230 -230 l-39 -80 0 -1111 0 -1111 39 -80 c64
-129 178 -225 310 -260 42 -11 245 -14 1112 -14 1027 0 1064 1 1125 20 159 49
291 190 328 350 15 63 15 5057 0 5120 -37 160 -169 301 -328 350 -61 19 -95
20 -890 19 -639 0 -835 -3 -866 -13z"/>
<path d="M3730 5015 l0 -495 50 0 50 0 0 495 0 495 -50 0 -50 0 0 -495z"/>
<path d="M5630 5365 l0 -115 -50 0 -50 0 0 -45 0 -45 49 0 50 0 3 -257 c3
-254 3 -259 28 -302 35 -62 92 -91 180 -91 37 0 81 5 99 11 29 10 31 14 31 61
0 44 -2 49 -17 43 -98 -37 -170 -27 -203 28 -18 29 -20 52 -20 270 l0 237 125
0 125 0 0 45 0 45 -125 0 -125 0 0 115 0 115 -50 0 -50 0 0 -115z"/>
<path d="M6520 5365 l0 -115 -50 0 -50 0 0 -45 0 -45 50 0 50 0 0 -225 c0
-126 5 -247 11 -276 14 -64 62 -121 117 -137 54 -16 146 -15 187 2 33 14 35
18 35 62 0 44 -1 46 -22 39 -79 -25 -117 -28 -154 -14 -69 26 -74 48 -74 317
l0 232 125 0 125 0 0 45 0 45 -125 0 -125 0 0 115 0 115 -50 0 -50 0 0 -115z"/>
<path d="M7920 5365 l0 -115 -55 0 -55 0 0 -45 0 -45 55 0 55 0 0 -255 c0
-231 2 -259 19 -293 23 -46 46 -67 94 -87 43 -18 134 -20 188 -3 38 11 39 12
39 60 0 26 -3 48 -7 48 -5 0 -28 -7 -53 -16 -48 -17 -113 -13 -141 9 -40 30
-44 55 -47 300 l-4 237 126 0 126 0 0 45 0 45 -125 0 -125 0 0 115 0 115 -45
0 -45 0 0 -115z"/>
<path d="M4312 5252 c-29 -11 -70 -33 -92 -51 l-40 -32 0 41 0 40 -50 0 -50 0
0 -365 0 -365 50 0 50 0 0 223 c0 248 8 299 58 354 86 93 247 101 324 16 47
-51 52 -86 56 -345 l4 -248 44 0 44 0 0 258 c0 144 -5 273 -10 294 -19 67 -70
130 -131 161 -75 38 -181 46 -257 19z"/>
<path d="M5080 5259 c-107 -21 -180 -103 -180 -201 0 -108 50 -150 251 -214
131 -42 169 -69 169 -124 0 -136 -201 -158 -376 -41 l-31 21 -29 -41 c-28 -40
-28 -41 -9 -56 118 -88 312 -120 420 -69 90 42 125 96 125 192 0 115 -52 159
-259 223 -146 46 -184 87 -146 160 36 70 158 80 281 22 36 -17 68 -31 69 -31
6 0 45 68 45 78 0 13 -89 56 -145 70 -65 17 -137 21 -185 11z"/>
<path d="M8647 5260 c-110 -28 -218 -124 -257 -227 -57 -152 -29 -301 78 -415
178 -191 492 -138 606 102 29 60 31 73 31 170 0 96 -3 110 -29 165 -40 81
-119 157 -193 185 -65 24 -179 34 -236 20z m198 -114 c172 -79 215 -325 82
-465 -122 -128 -335 -99 -421 58 -107 197 18 431 229 431 42 0 75 -7 110 -24z"/>
<path d="M6150 4885 l0 -365 50 0 50 0 0 365 0 365 -50 0 -50 0 0 -365z"/>
<path d="M7022 4988 c5 -288 9 -314 68 -388 18 -22 55 -51 87 -66 47 -23 69
-28 137 -28 93 0 159 23 214 76 l32 32 0 -47 0 -47 45 0 45 0 0 365 0 365 -44
0 -44 0 -4 -237 c-4 -259 -9 -286 -66 -347 -79 -84 -244 -89 -313 -10 -51 58
-54 75 -57 342 l-4 252 -50 0 -50 0 4 -262z"/>
<path d="M443 4525 c-120 -33 -223 -109 -293 -217 -54 -83 -73 -163 -68 -289
3 -95 6 -111 41 -183 118 -249 415 -353 663 -231 308 151 368 578 114 807
-123 110 -303 154 -457 113z"/>
<path d="M7570 3080 l0 -520 50 0 50 0 0 520 0 520 -50 0 -50 0 0 -520z"/>
<path d="M8248 3496 c-38 -57 -68 -107 -68 -110 0 -3 20 -6 45 -6 43 0 50 4
125 76 44 42 80 80 80 85 0 5 -17 17 -37 28 -77 38 -72 40 -145 -73z"/>
<path d="M3490 3510 l0 -50 170 0 170 0 0 -450 0 -450 50 0 50 0 0 450 0 450
170 0 170 0 0 50 0 50 -390 0 -390 0 0 -50z"/>
<path d="M4444 3296 c-99 -31 -198 -140 -225 -248 -21 -80 -16 -201 12 -273
31 -83 121 -173 204 -204 84 -32 215 -27 295 11 59 27 140 92 140 111 0 7 -15
24 -34 39 l-33 27 -29 -30 c-37 -38 -116 -77 -175 -85 -111 -15 -236 63 -272
171 -9 27 -17 55 -17 62 0 10 57 13 291 13 l292 0 -6 74 c-15 171 -105 300
-237 336 -48 14 -157 11 -206 -4z m203 -99 c62 -33 114 -106 128 -180 l7 -37
-237 0 -237 0 7 33 c19 87 83 164 164 194 43 16 127 11 168 -10z"/>
<path d="M5260 3294 c-95 -35 -174 -108 -219 -204 -23 -48 -26 -68 -26 -160 0
-95 3 -111 29 -167 34 -73 113 -153 183 -186 40 -18 66 -22 153 -22 94 0 111
3 160 27 58 28 140 100 139 121 0 7 -13 22 -29 35 l-29 23 -56 -45 c-100 -82
-204 -95 -307 -39 -215 117 -182 462 51 530 92 26 177 2 262 -74 l40 -36 37
37 37 37 -45 40 c-77 68 -140 93 -244 96 -65 2 -104 -1 -136 -13z"/>
<path d="M6079 3301 c-42 -14 -72 -32 -106 -64 l-33 -31 0 47 0 47 -50 0 -50
0 0 -370 0 -370 50 0 50 0 0 231 c0 270 5 294 70 359 88 89 221 94 300 11 55
-57 60 -89 60 -360 l0 -241 50 0 50 0 0 253 c0 278 -6 321 -58 393 -16 21 -53
52 -83 69 -46 25 -67 29 -139 32 -47 1 -97 -1 -111 -6z"/>
<path d="M6893 3296 c-60 -19 -104 -49 -157 -106 -56 -60 -81 -113 -95 -200
-28 -171 58 -338 207 -408 50 -24 69 -27 162 -27 127 0 171 17 255 96 64 61
102 133 113 219 24 175 -56 333 -205 406 -47 24 -72 29 -147 31 -57 2 -107 -2
-133 -11z m226 -106 c132 -67 191 -212 145 -356 -33 -107 -147 -194 -254 -194
-134 0 -256 121 -267 264 -8 97 16 167 81 232 84 84 197 104 295 54z"/>
<path d="M8111 3294 c-98 -35 -174 -106 -220 -203 -23 -50 -26 -68 -26 -166 0
-100 3 -115 27 -166 36 -72 105 -141 176 -176 51 -25 67 -28 162 -28 93 0 112
3 162 27 151 71 240 247 209 415 -24 131 -96 228 -211 281 -70 33 -210 41
-279 16z m199 -90 c39 -12 66 -29 105 -68 67 -67 89 -129 83 -230 -5 -80 -24
-124 -77 -179 -56 -60 -104 -81 -186 -81 -61 -1 -77 3 -125 30 -137 77 -186
244 -115 390 32 64 93 120 155 139 60 18 96 18 160 -1z"/>
<path d="M8979 3295 c-153 -49 -248 -193 -237 -361 8 -127 70 -219 190 -280
43 -23 70 -28 143 -32 109 -5 178 17 249 79 l46 41 0 -36 c0 -168 -96 -266
-261 -266 -92 0 -157 18 -229 65 l-55 35 -27 -32 c-16 -18 -28 -38 -28 -44 0
-17 89 -70 162 -96 50 -18 86 -22 173 -23 101 0 115 3 173 29 75 35 142 104
168 174 16 41 18 91 22 400 l3 352 -50 0 -51 0 0 -56 0 -56 -41 37 c-63 57
-120 78 -219 82 -56 2 -101 -2 -131 -12z m236 -104 c60 -27 100 -65 129 -123
96 -193 -102 -407 -319 -344 -116 34 -197 158 -180 274 17 112 88 185 210 216
33 8 117 -4 160 -23z"/>
<path d="M10241 3294 c-98 -35 -174 -106 -220 -203 -23 -50 -26 -68 -26 -166
0 -102 2 -114 29 -168 35 -68 118 -150 183 -180 69 -32 237 -32 305 0 50 23
148 108 147 127 0 6 -13 21 -29 34 l-29 22 -64 -49 c-107 -80 -200 -90 -305
-30 -163 93 -189 323 -52 460 58 58 135 85 208 74 58 -9 94 -26 155 -78 l49
-40 36 37 37 37 -45 40 c-77 68 -140 93 -244 96 -65 2 -104 -1 -135 -13z"/>
<path d="M11013 3296 c-107 -35 -176 -97 -227 -206 -28 -59 -31 -74 -31 -160
1 -75 5 -107 23 -152 30 -75 96 -147 174 -189 61 -33 67 -34 173 -34 101 0
114 2 163 28 79 42 138 101 175 176 29 61 32 73 32 171 0 93 -3 111 -27 162
-35 76 -104 148 -175 183 -48 24 -73 29 -148 32 -57 2 -105 -2 -132 -11z m219
-104 c141 -64 205 -251 135 -394 -82 -167 -284 -206 -417 -82 -113 106 -125
271 -30 404 24 33 95 79 143 91 46 12 120 3 169 -19z"/>
<path d="M9700 2930 l0 -370 50 0 50 0 0 370 0 370 -50 0 -50 0 0 -370z"/>
<path d="M3850 1616 c-234 -66 -386 -288 -366 -537 17 -217 142 -384 334 -448
126 -43 328 -22 424 44 20 14 41 25 47 25 5 0 37 -25 69 -55 33 -30 64 -55 69
-55 5 0 24 18 41 39 l32 39 -65 53 c-67 54 -75 68 -51 88 21 18 75 142 86 200
53 279 -100 539 -357 606 -68 18 -200 18 -263 1z m196 -87 c252 -46 394 -323
295 -579 -12 -30 -29 -65 -39 -78 l-17 -22 -88 80 c-48 44 -91 80 -96 80 -5 0
-24 -17 -41 -37 l-31 -38 33 -30 c19 -16 60 -53 93 -81 l59 -51 -69 -34 c-63
-31 -78 -34 -155 -34 -222 0 -383 156 -398 387 -13 214 112 392 308 434 71 16
76 16 146 3z"/>
<path d="M5900 1465 l0 -115 -50 0 -50 0 0 -45 0 -45 50 0 50 0 0 -241 c0
-155 4 -256 12 -281 13 -45 64 -98 110 -114 43 -16 131 -17 179 -2 38 11 39
12 39 61 0 47 -1 49 -22 42 -110 -33 -166 -25 -198 28 -18 29 -20 52 -20 270
l0 237 120 0 120 0 0 45 0 45 -120 0 -120 0 0 115 0 115 -50 0 -50 0 0 -115z"/>
<path d="M6613 1355 c-180 -56 -290 -233 -263 -424 18 -126 84 -223 192 -282
61 -33 67 -34 173 -34 98 0 116 3 167 27 187 87 266 330 172 525 -38 79 -129
157 -210 183 -75 23 -168 25 -231 5z m224 -111 c161 -77 204 -310 82 -448 -50
-57 -104 -86 -174 -93 -104 -11 -210 50 -263 151 -23 44 -27 63 -27 136 0 70
4 93 24 130 30 59 67 97 116 123 84 43 154 43 242 1z"/>
<path d="M4662 1088 c4 -247 5 -266 26 -313 30 -65 75 -112 137 -141 40 -19
66 -24 135 -24 97 0 153 20 208 73 l32 31 0 -47 0 -47 50 0 50 0 0 365 0 365
-50 0 -50 0 0 -218 c0 -171 -3 -230 -16 -273 -54 -183 -314 -217 -395 -52 -23
46 -24 59 -27 296 l-4 247 -50 0 -50 0 4 -262z"/>
<path d="M5530 985 l0 -365 50 0 50 0 0 365 0 365 -50 0 -50 0 0 -365z"/>
</g>
</svg>
